/* XPM */
static char *_86c9c4d17154fe8d92aacd7a10f3ce2QxPavLcgi2ozRM7p[] = {
/* columns rows colors chars-per-pixel */
"32 32 4 1 ",
"  c None",
". c #F39C11",
"X c #C0CCDC",
"o c #ECF0F1",
/* pixels */
"                                ",
"                                ",
"                                ",
"                                ",
"                                ",
"                                ",
"                                ",
"                 XooooooooooX   ",
"                 XooooooooooX   ",
"   XooooooooooX  XooooooooooX   ",
"   XooooooooooX  XooooooooooX   ",
"   X.......o..X  X..........X   ",
"   X.......o..X  X......o...X   ",
"   X.......o..X  X......o...X   ",
"   X.......o..X   X........X    ",
"    X......o.X    X........X    ",
"    X........X    X........X    ",
"    X........X     X......X     ",
"    X........X     X......X     ",
"     X......X      X......X     ",
"     X......X       X....X      ",
"     X......X       X....X      ",
"     X......X       X....X      ",
"     XX....XX      XX....XX     ",
"     XXXXXXXX     XXXXXXXXXX    ",
"     XXXXXXXX    XXXXXXXXooXX   ",
"                                ",
"                                ",
"                                ",
"                                ",
"                                ",
"                                "
};
