/* XPM */
static char *f1e4071a145b42a7b543a84420c1bca3xL6zicxdTxljSFGo[] = {
/* columns rows colors chars-per-pixel */
"32 32 6 1 ",
"  c #2F5753",
". c #3B7D4F",
"X c #63AB3F",
"o c #F39C11",
"O c #C0CCDC",
"+ c #ECF0F1",
/* pixels */
"XX..XXXXXXXXXXXXXXXXXXXXXXXXXXXX",
"XXXXXXXXXXXXXXXXXXXXXXXXXXXXXXXX",
"XXXXXXXXXXXXXXXXXXXXXXXXXXXXXXXX",
"XXXXXXXXXXXXXXXXXXXXXXXXXXXXXXXX",
"XXXXXXXXXXXXXXXXXXXXXXXXXXXXXXXX",
"XXXXXXX.XXXXXXXXXXXXXXXXXXXXXXXX",
"XXXXXXXX.XXXXXXXXXXXXXXXXXXXXXXX",
"XXXXXXXX..XX.XXXXO++++++++++OXXX",
"XXXXXXX.....XXXXXO++++++++++OXXX",
"XXXO++++++++++OXXO++++++++++OXXX",
"XXXO++++++++++OXXO++++++++++OXXX",
"XXXOooooooo+ooOXXOooooooooooOXXX",
"XXXOooooooo+ooOXXOoooooo+oooOXXX",
"XXXOooooooo+ooOXXOoooooo+oooOXXX",
"XXXOooooooo+ooOXXXOooooooooOXXXX",
"XXXXOoooooo+oOXXXXOooooooooOXXXX",
"XXXXOooooooooOXXXXOooooooooOXXXX",
"XXXXOooooooooOXXXXXOooooooOXXXXX",
"XXXXOooooooooOXXXXXOooooooOXXXXX",
"XXXXXOooooooOXXXXXXOooooooOXXXXX",
".XXXXOooooooOXXXXXXXOooooOXXXXXX",
".XXXXOooooooOXXXXXXXOooooOXXXXXX",
"XXXXXOooooooOXXXXXXXOooooOXXXXX.",
"XXXXXOOooooOOXXXXXXOOooooOO.XX..",
".XXXXOOOOOOOOXXXXXOOOOOOOOOO... ",
"..XX.OOOOOOOOXXXXOOOOOOOO++OO.  ",
" ...XXXXXXXXXXXXXXXXXXXXX....   ",
"...XXXXXXXXXXXXXXXXXXXXXX.......",
"XXXXXXXXXXXXXXXXXXXXXXXXXXXXXXXX",
"XXXXXXXXXXXXXXXXXXXXXXXXXXXXXXXX",
"XXXXXXXXXXXXXXXXXXXXXXXXXXXXXXXX",
"XXXXXXXXXXXXXXXXXXXXXXXXXXXXXXXX"
};
