/* XPM */
static char *eb74560382af4597ea3efbfdc781b513hgcCEngTAAuxoRCv[] = {
/* columns rows colors chars-per-pixel */
"32 32 7 1 ",
"  c #17111A",
". c #734538",
"X c #2F5753",
"o c #3B7D4F",
"O c #A66F4C",
"+ c #63AB3F",
"@ c #D3A15E",
/* pixels */
"++oo++++++++++++++++++++++++++++",
"++++++++++++++++++++++++++++++++",
"++++++++++++++++++++++++++++++++",
"++++++++++++++++++++++++++++++++",
"+++++++++++++++++++++ ++++++++++",
"+++++++o++ +++++++++ @ +++++++++",
"++++++++o @ ++++++++ @ +++++++++",
"++++++++o @ o+++++  @@ +++++++++",
"+++++++oo @.      @@@@ +++++++++",
"+++o++ooX @.OOO@@@@@@@O ++++++++",
"++++oooXX @@.O@@@@@@@@O ++++++++",
"+++++oooo @@O@@@@@@@@@@O +++++++",
"++++++++ @@@@O@@@@@@@@@O +++++++",
"++++++++ @@@@O@@@@@@@@@@O ++++++",
"+++++++ @@@@@@O@@@@@@@@@OO +++++",
"+++++++ @@O@@@O@@@@@@@@@@OO ++++",
"++++++ @@@.@@@@O@@@@@@@@@OO ++++",
"++++++ @@@.O@@@O@@@@@@@@@@OO +++",
"+++++ @@@@.O@@@@.@@@@@@@@OOO +++",
"+++++ @@@@ O@@@@O.O@@@@@OOOO +++",
"o+++ @@@@ + O@@@@O.OO@@OOO  ++++",
"o+++ @@@@ + O@@@@OO.OOOOO ++++++",
"+++ @@@@O + O@@@OOOO.OO  ++++++o",
"+++ OOOO +++ OOOOOOO.  ++++o++oo",
"o++      +++         +++++++oooX",
"oo++o+++++++++++++++++++++++ooXX",
"Xooo+++++++++++++++++++++ooooXXX",
"ooo++++++++++++++++++++++ooooooo",
"++++++++++++++++++++++++++++++++",
"++++++++++++++++++++++++++++++++",
"++++++++++++++++++++++++++++++++",
"++++++++++++++++++++++++++++++++"
};
