/* XPM */
static char *_f2d85baf2994c7afff9e98ed16ec5f2kgjI29yCCbAyURt6[] = {
/* columns rows colors chars-per-pixel */
"32 32 5 1 ",
"  c None",
". c #17111A",
"X c #734538",
"o c #A66F4C",
"O c #D3A15E",
/* pixels */
"                                ",
"                                ",
"                                ",
"                                ",
"                     .          ",
"          .         .O.         ",
"         .O.        .O.         ",
"         .O.      ..OO.         ",
"         .OX......OOOO.         ",
"         .OXoooOOOOOOOo.        ",
"         .OOXoOOOOOOOOo.        ",
"         .OOoOOOOOOOOOOo.       ",
"        .OOOOoOOOOOOOOOo.       ",
"        .OOOOoOOOOOOOOOOo.      ",
"       .OOOOOOoOOOOOOOOOoo.     ",
"       .OOoOOOoOOOOOOOOOOoo.    ",
"      .OOOXOOOOoOOOOOOOOOoo.    ",
"      .OOOXoOOOoOOOOOOOOOOoo.   ",
"     .OOOOXoOOOOXOOOOOOOOooo.   ",
"     .OOOO.oOOOOoXoOOOOOoooo.   ",
"    .OOOO. .oOOOOoXooOOooo..    ",
"    .OOOO. .oOOOOooXooooo.      ",
"   .OOOOo. .oOOOooooXoo..       ",
"   .oooo.   .oooooooX..         ",
"   ......   .........           ",
"                                ",
"                                ",
"                                ",
"                                ",
"                                ",
"                                ",
"                                "
};
