/* XPM */
static char *_da155b381da40e4d2c8a7833c0784d26JWh6WJ3R3Djjxdc[] = {
/* columns rows colors chars-per-pixel */
"32 32 202 2 ",
"   c #231915",
".  c #291914",
"X  c #2C1E1A",
"o  c #252618",
"O  c #34211C",
"+  c #39241C",
"@  c #283617",
"#  c #3B2521",
"$  c #382A22",
"%  c #492B1F",
"&  c #53251D",
"*  c #422621",
"=  c #432B23",
"-  c #4D2C25",
";  c #4C2C27",
":  c #542D24",
">  c #4B3129",
",  c #53342B",
"<  c #573528",
"1  c #5C362B",
"2  c #5A3731",
"3  c #513C34",
"4  c #5C3C32",
"5  c #632F24",
"6  c #63352C",
"7  c #693629",
"8  c #663A2D",
"9  c #733E2C",
"0  c #663632",
"q  c #623B34",
"w  c #6E3D34",
"e  c #693F38",
"r  c #7B3E32",
"t  c #30441C",
"y  c #32521F",
"u  c #354B21",
"i  c #3A6224",
"p  c #454828",
"a  c #464531",
"s  c #584838",
"d  c #6C442E",
"f  c #70402E",
"g  c #68453A",
"h  c #714136",
"j  c #7A4235",
"k  c #714138",
"l  c #78443C",
"z  c #744A3E",
"x  c #7C4A3D",
"c  c #6C5F3C",
"v  c #49622C",
"b  c #4A6C2C",
"n  c #42702A",
"m  c #65783D",
"M  c #2F5753",
"N  c #3B7D4F",
"B  c #654C40",
"V  c #6A4C43",
"C  c #744C41",
"Z  c #7B4A41",
"A  c #6E544B",
"S  c #725143",
"D  c #7B5147",
"F  c #73554B",
"G  c #775B4D",
"H  c #7C5C4E",
"J  c #755C52",
"K  c #7B5D52",
"L  c #557C52",
"P  c #637740",
"I  c #7C6154",
"U  c #854736",
"Y  c #8C4C36",
"T  c #834C3B",
"R  c #884D3F",
"E  c #914F37",
"W  c #924B3C",
"Q  c #8B553E",
"!  c #93553D",
"~  c #9E543C",
"^  c #A3563D",
"/  c #854C45",
"(  c #835146",
")  c #8C5943",
"_  c #8B5549",
"`  c #88594B",
"'  c #9B5445",
"]  c #965846",
"[  c #91554B",
"{  c #9B5D4B",
"}  c #A25B42",
"|  c #A95D45",
" . c #A3564C",
".. c #A35C4D",
"X. c #A15B52",
"o. c #B55F5C",
"O. c #95614E",
"+. c #9B604C",
"@. c #826153",
"#. c #876758",
"$. c #8C6B59",
"%. c #9B6352",
"&. c #9C6954",
"*. c #926F5D",
"=. c #9D6D5C",
"-. c #987458",
";. c #AB6647",
":. c #B6674C",
">. c #B56C4A",
",. c #BB714E",
"<. c #AD6552",
"1. c #A46A56",
"2. c #A46959",
"3. c #BB6C56",
"4. c #B76B5B",
"5. c #A1755C",
"6. c #AB755E",
"7. c #BB7354",
"8. c #B6765E",
"9. c #BB755C",
"0. c #9E6F63",
"q. c #987866",
"w. c #AB7864",
"e. c #AB7C6A",
"r. c #B77863",
"t. c #C37156",
"y. c #CC7C56",
"u. c #C4795D",
"i. c #C87D5B",
"p. c #C06B67",
"a. c #C67865",
"s. c #C67B65",
"d. c #CA7B69",
"f. c #538B34",
"g. c #5B9739",
"h. c #649A3F",
"j. c #62A53E",
"k. c #63AB3F",
"l. c #689A42",
"z. c #6BA745",
"x. c #65AA41",
"c. c #6AAB45",
"v. c #72A747",
"b. c #75AC4D",
"n. c #7DA951",
"m. c #898D50",
"M. c #948856",
"N. c #889550",
"B. c #AA8153",
"V. c #86A14F",
"C. c #88AF5F",
"Z. c #908D6B",
"A. c #949560",
"S. c #A3836C",
"D. c #B98867",
"F. c #AF9564",
"G. c #A88778",
"H. c #B58B78",
"J. c #AF997A",
"K. c #B9927D",
"L. c #90AB63",
"P. c #93AE69",
"I. c #A2AF73",
"U. c #A9AC7B",
"Y. c #B1A77D",
"T. c #CD825B",
"R. c #D7865F",
"E. c #C78668",
"W. c #CC826C",
"Q. c #D38363",
"!. c #DC8A64",
"~. c #D58B6D",
"^. c #D9896B",
"/. c #DD926C",
"(. c #D48B71",
"). c #DA8E76",
"_. c #DC9276",
"`. c #D99578",
"'. c #DD937C",
"]. c #E38E6D",
"[. c #E39575",
"{. c #E69971",
"}. c #E99976",
"|. c #E29678",
" X c #E59B7C",
".X c #E99E7B",
"XX c #EBA07C",
"oX c #B49384",
"OX c #BC9683",
"+X c #B7AA89",
"@X c #BAB089",
"#X c #C4A78A",
"$X c #C4A593",
"%X c #CEB296",
"&X c #EBA284",
"*X c #ECA589",
"=X c #F1AB86",
"-X c #F1AA8D",
";X c #F7B393",
":X c #F9B79E",
">X c #F9BDA6",
",X c #FBC1AE",
/* pixels */
"k.k.N N k.k.k.k.k.k.k.k.k.k.k.x.x.x.x.x.x.x.k.k.k.k.k.k.k.k.k.k.",
"k.k.k.k.k.k.k.k.k.k.k.b.P.U.+X@X+XU.P.b.k.k.k.k.k.k.k.k.k.k.k.k.",
"k.k.k.k.k.k.k.k.k.c.I.%X$XoXG.G.q.G.oX+X+XC.k.k.k.k.k.k.k.k.k.k.",
"k.k.k.k.k.k.k.k.b.#X$XK.q.s g H H S F #.G.$XI.x.k.k.k.k.k.k.k.k.",
"k.k.k.k.k.k.k.c.Y.K.S.H g , C $.K.=.V s V @.OX@Xb.k.k.k.k.k.k.k.",
"k.k.k.k.k.k.k.Z.S.q.$.2 ] =.5.e.OXOXw.` z > #.oXY.x.k.k.k.k.k.k.",
"k.k.k.k.k.k.v.S.*.$.I K F F F A A A J I I K G q.OXL.k.k.k.k.k.k.",
"k.k.k.k.k.k.A.*.$.G B S ) &.w.w.w.6.&.` F A K #.q.J.x.k.k.k.k.k.",
"k.k.k.k.k.c.q.@.g , ;./.{.{.XXXX.X X|._.(.r.` 3 A q.x.k.k.k.k.k.",
"k.k.k.N k.z.#.V < >.!.}.XXXX&XXX[.[.[._._.'.~.x O a x.k.k.k.k.k.",
"k.k.k.k.N L G # ! y.R.XX=X;X;X;X-X-X-X*X X X~.9., s x.k.k.k.k.k.",
"k.k.k.k.k.L 3 - >.y.T.~.`. X&X&X&X&X&X&X*X&X(.9.l p x.k.k.k.k.k.",
"k.k.k.k.k.h.$ d i.7.! x h w ] 9.a.u.4.2.2.5.6.8.T u k.k.k.k.k.k.",
"k.k.k.k.n.-.+ Q i.;.Y ! Q 8 5 W <.[ 6 - 1 k Z 1.O.v k.k.k.k.k.k.",
"k.k.k.k.b.] 7 ) i.;.Y j * 8 7 ~ ).[ 6 : g Z l %.&.m k.k.k.k.k.k.",
"k.k.k.k.c.D.E Q Q.T.>.| ' W } T.>Xw.R T w Z x 1.&.c x.k.k.k.k.k.",
"k.k.k.k.k.F.~ Q Q././.i.7.u.y.].:XW.4...' { 2.r.%.m.k.k.k.k.k.k.",
"k.k.k.k.k.V.7.] i.!.}.*X X[.!.}.,X).d.W.a.a.W.E.&.v.k.k.k.k.k.k.",
"k.k.k.k.k.x.B.Q ,.T.^.[.^.t.Q.Q.'.d.a.(._.(.d.8.5.k.k.k.k.k.k.k.",
"k.k.k.k.k.k.N.T ;.>.:.;.^ t.W r R / X. .a.a.r.1.M.k.k.k.k.k.k.k.",
"N k.k.k.k.k.h., ! ~ ^ j <.1.6 * * # _ ..' { { O.N.k.k.k.k.k.k.k.",
"N k.k.k.k.k.h.= f Y 9 % w j r 6 : - e C h _ x C l.k.k.k.k.k.k.k.",
"k.k.k.k.k.k.l.= < 9 U 9 & U { ] _ l 0 - # l q 4 x.k.k.k.k.k.k.N ",
"k.k.k.k.k.k.x.b % : Y } ^ 3.E.D.H.0.D - 8 h = s k.k.k.N k.k.N N ",
"N k.k.k.k.k.k.j.p + 8 ' :.3.a.4.p.o. .[ Z , # P k.k.k.k.N N N M ",
"N N k.k.N k.k.k.g.O + T } 9 6 w 0 l / ( , # p j.k.k.k.k.N N M M ",
"M N N N k.k.k.k.k.b . 1 +.R 1 - = q Z q O $ g.k.k.N N N N M M M ",
"N N N k.k.k.k.k.k.j.t + g x x ( k z g O o f.k.k.k.N N N N N N N ",
"k.k.k.k.k.k.k.k.k.k.g.@ X > , 4 2 > # o f.k.k.k.k.k.k.k.k.k.k.k.",
"k.k.k.k.k.k.k.k.k.k.k.g.@     X X   o f.k.k.k.k.k.k.k.k.k.k.k.k.",
"k.k.k.k.k.k.k.k.k.k.k.k.j.f.i y t n g.k.k.k.k.k.k.k.k.k.k.k.k.k.",
"k.k.k.k.k.k.k.k.k.k.k.k.k.k.k.k.k.k.k.k.k.k.k.k.k.k.k.k.k.k.k.k."
};
