/* XPM */
static char *result[] = {
/* columns rows colors chars-per-pixel */
"32 32 202 2 ",
"   c #19130F",
".  c #1C1411",
"X  c #241A16",
"o  c #291913",
"O  c #2C1E1A",
"+  c #331E17",
"@  c #2C201E",
"#  c #34211C",
"$  c #3E251E",
"%  c #352421",
"&  c #3B2521",
"*  c #3C2A22",
"=  c #3E3029",
"-  c #47291E",
";  c #53251D",
":  c #422621",
">  c #432A23",
",  c #4D2C25",
"<  c #402D28",
"1  c #4D2E2A",
"2  c #4C2722",
"3  c #542D24",
"4  c #483027",
"5  c #4E312A",
"6  c #53342B",
"7  c #5C362B",
"8  c #543B2F",
"9  c #573225",
"0  c #443630",
"q  c #533B34",
"w  c #5C3A32",
"e  c #5A3731",
"r  c #632F24",
"t  c #63352C",
"y  c #663A2D",
"u  c #693629",
"i  c #733E2C",
"p  c #663632",
"a  c #623B34",
"s  c #6E3D34",
"d  c #693F38",
"f  c #7B3E32",
"g  c #514037",
"h  c #5C453C",
"j  c #6C442E",
"k  c #70402E",
"l  c #6C4136",
"z  c #6B433B",
"x  c #654B3E",
"c  c #684639",
"v  c #714136",
"b  c #7A4235",
"n  c #714138",
"m  c #78443C",
"M  c #744A3E",
"N  c #7C4A3D",
"B  c #644D40",
"V  c #6A4C43",
"C  c #744B41",
"Z  c #7B4A41",
"A  c #6E544B",
"S  c #725143",
"D  c #73554B",
"F  c #7B5B4D",
"G  c #79564B",
"H  c #7B5D52",
"J  c #755C52",
"K  c #7C6154",
"L  c #854733",
"P  c #8C4C36",
"I  c #834C3B",
"U  c #884D3F",
"Y  c #87473C",
"T  c #914F37",
"R  c #924B3C",
"E  c #8B553E",
"W  c #89553E",
"Q  c #93553D",
"!  c #9E543C",
"~  c #A3543D",
"^  c #A45B3E",
"/  c #884F48",
"(  c #814842",
")  c #835146",
"_  c #8C5943",
"`  c #8B5549",
"'  c #855C4E",
"]  c #8D5346",
"[  c #945546",
"{  c #9B5445",
"}  c #91554B",
"|  c #9B5D4B",
" . c #975A46",
".. c #A25B42",
"X. c #A3564C",
"o. c #A35C4D",
"O. c #A95D45",
"+. c #A15B52",
"@. c #B55F5C",
"#. c #95614E",
"$. c #9B604C",
"%. c #826153",
"&. c #8C6B59",
"*. c #876658",
"=. c #9B6453",
"-. c #9D6A54",
";. c #9D6D5C",
":. c #926F5D",
">. c #97735F",
",. c #AD6545",
"<. c #AA6749",
"1. c #B2634B",
"2. c #B56C4A",
"3. c #BA6C4D",
"4. c #BB714E",
"5. c #AD6552",
"6. c #A46A56",
"7. c #A36D5C",
"8. c #A56756",
"9. c #BB6C56",
"0. c #B16C5A",
"q. c #BC6A5D",
"w. c #A3725F",
"e. c #AB755E",
"r. c #BB7354",
"t. c #B6765E",
"y. c #BB755C",
"u. c #B47656",
"i. c #9E6F63",
"p. c #957566",
"a. c #9D7964",
"s. c #97786A",
"d. c #9C7A6B",
"f. c #AB7864",
"g. c #A77E6A",
"h. c #BC7C63",
"j. c #B37662",
"k. c #C37156",
"l. c #CC7C56",
"z. c #C2765D",
"x. c #C67C5D",
"c. c #C87D5B",
"v. c #C06B67",
"b. c #C87760",
"n. c #C67B65",
"m. c #C77F69",
"M. c #CA7B69",
"N. c #C47565",
"B. c #A5846E",
"V. c #A8866E",
"C. c #BB8668",
"Z. c #A98877",
"A. c #A88778",
"S. c #B58B78",
"D. c #B6937E",
"F. c #BF907D",
"G. c #B9997E",
"H. c #CD825B",
"J. c #D0805F",
"K. c #DD8C5F",
"L. c #CC826C",
"P. c #C6886A",
"I. c #D38363",
"U. c #DC8A64",
"Y. c #D58B6D",
"T. c #DC8D6C",
"R. c #D7856B",
"E. c #DD926C",
"W. c #D48B71",
"Q. c #DA8E76",
"!. c #DC9276",
"~. c #D79078",
"^. c #DD937C",
"/. c #DB9977",
"(. c #E38E6D",
"). c #E39575",
"_. c #E69971",
"`. c #E29678",
"'. c #E59B7C",
"]. c #E99E7B",
"[. c #E99976",
"{. c #EBA07C",
"}. c #B49384",
"|. c #BC9381",
" X c #BB9A86",
".X c #C9A68D",
"XX c #C5A494",
"oX c #C8A698",
"OX c #CCAB9A",
"+X c #CBA893",
"@X c #D1AE9B",
"#X c #D4B39C",
"$X c #EBA284",
"%X c #ECA589",
"&X c #F1AA8D",
"*X c #F1AB86",
"=X c #F2AF93",
"-X c #F7B393",
";X c #F9B79E",
":X c #F9BDA6",
">X c #FBC1AE",
",X c None",
/* pixels */
",X,X,X,X,X,X,X,X,X,X,X,X,X,X,X,X,X,X,X,X,X,X,X,X,X,X,X,X,X,X,X,X",
",X,X,X,X,X,X,X,X,X,X,X,X,X,X@XOXoXOX,X,X,X,X,X,X,X,X,X,X,X,X,X,X",
",X,X,X,X,X,X,X,X,X,X,X#XXX}.Z.A.s.A.}.XXOX,X,X,X,X,X,X,X,X,X,X,X",
",X,X,X,X,X,X,X,X,X+X.XD.p.h x K F S D *.A.oX,X,X,X,X,X,X,X,X,X,X",
",X,X,X,X,X,X,X,X.XD.B.F c 8 C #.~.p.V w A %. X#X,X,X,X,X,X,X,X,X",
",X,X,X,X,X,X,XG.B.a.*.8 _ ;.i.V.|.|.g.' z 1 *.}.+X,X,X,X,X,X,X,X",
",X,X,X,X,X,X,Xg.>.:.K K G D D A V A J J K H J d. X,X,X,X,X,X,X,X",
",X,X,X,X,X,XV.:.&.F x S _ -.f.j.f.f.=.%.D A H %.p.|.,X,X,X,X,X,X",
",X,X,X,X,X,Xa.%.x 5 <.E._._.].{.].'.^.!.Y.h.' q A p.,X,X,X,X,X,X",
",X,X,X,X,X,X*.V 7 2.K.{.{.].$X{.[.`.).^.Q.^.Y.N @ 0 ,X,X,X,X,X,X",
",X,X,X,X,X,XF $ T H.K.{.*X-X-X=X&X&X&X%X'.'.E.t.6 g ,X,X,X,X,X,X",
",X,X,X,X,X,Xg , 2.H.H.P./.'.$X$X$X$X$X$X%X$XW.z.M = ,X,X,X,X,X,X",
",X,X,X,X,X,X= j H.4.Q N l s [ q.z.z.0.8.7.7.e.t.W X ,X,X,X,X,X,X",
",X,X,X,X,X-.$ W H.,.P Q E u r R 5.[ p 2 t z Z 6.#.* ,X,X,X,X,X,X",
",X,X,X,X,X[ r Q H.,.P v : y u ! ~.} t 3 z N m $.-.x ,X,X,X,X,X,X",
",X,X,X,X,XC.T E H.H.2.,.{ R O.H.:X0./ Y l m N =.8.z ,X,X,X,X,X,X",
",X,X,X,X,XP.! W I.T.T.x.k.k.l.(.:XM.0.5.{ | 0.h.=.;.,X,X,X,X,X,X",
",X,X,X,X,X,X4. .c.U.].$X].(.(.[.:XQ.M.L.n.n.L.P.=.,X,X,X,X,X,X,X",
",X,X,X,X,X,Xu.E 4.H.(.).R.k.R.M.^.M.n.W.!.W.L.j.7.,X,X,X,X,X,X,X",
",X,X,X,X,X,X,XI <.2.3.1.~ k.R f Y ( +.X.z.n.j.-.w.,X,X,X,X,X,X,X",
",X,X,X,X,X,X,X8 Q ~ ^ b 5.6.t : : & / +.{ +.$.#.,X,X,X,X,X,X,X,X",
",X,X,X,X,X,X,X> k P k - v m i t 2 2 d Z s ] I M ,X,X,X,X,X,X,X,X",
",X,X,X,X,X,X,X> 9 i L i ; L | | } f p 1 : m a w ,X,X,X,X,X,X,X,X",
",X,X,X,X,X,X,X$ - 9 P ^ ~ 9.h.C.S.i.G 2 p v * q ,X,X,X,X,X,X,X,X",
",X,X,X,X,X,X,X,X- + y { 1.9.N.q.q.@.+.} Z 7 % B ,X,X,X,X,X,X,X,X",
",X,X,X,X,X,X,X,X,X+ - I { i t s p m / / 6 & < ,X,X,X,X,X,X,X,X,X",
",X,X,X,X,X,X,X,X,X# o 7 $.W 7 1 > d C w % % ,X,X,X,X,X,X,X,X,X,X",
",X,X,X,X,X,X,X,X,X,Xo # c N N ) d Z z # X ,X,X,X,X,X,X,X,X,X,X,X",
",X,X,X,X,X,X,X,X,X,X,X. O 1 6 w e 1 % . ,X,X,X,X,X,X,X,X,X,X,X,X",
",X,X,X,X,X,X,X,X,X,X,X,X. X X O @ X . ,X,X,X,X,X,X,X,X,X,X,X,X,X",
",X,X,X,X,X,X,X,X,X,X,X,X,X,X.   . . ,X,X,X,X,X,X,X,X,X,X,X,X,X,X",
",X,X,X,X,X,X,X,X,X,X,X,X,X,X,X,X,X,X,X,X,X,X,X,X,X,X,X,X,X,X,X,X"
};
