/* XPM */
static char *result[] = {
/* columns rows colors chars-per-pixel */
"32 32 45 1 ",
"  c #21181B",
". c #3B2027",
"X c #7D3833",
"o c #AB5130",
"O c #CF752B",
"+ c #F0B541",
"@ c #FFEE83",
"# c #C8D45D",
"$ c #63AB3F",
"% c #3B7D4F",
"& c #2F5753",
"* c #283540",
"= c #1B1F21",
"- c #2B2B45",
"; c #3A3F5E",
": c #4C6885",
"> c #4FA4B8",
", c #92E8C0",
"< c #F5FFE8",
"1 c #DFE0E8",
"2 c #A3A7C2",
"3 c #686F99",
"4 c #404973",
"5 c #2C354D",
"6 c #14182E",
"7 c #4B1D52",
"8 c #692464",
"9 c #9C2A70",
"0 c #CC2F7B",
"q c #FF5277",
"w c #FFC2A1",
"e c #FF8933",
"r c #E64539",
"t c #AD2F45",
"y c #781D4F",
"u c #4F1D4C",
"i c #291D2B",
"p c #3D2936",
"a c #52333F",
"s c #8F4D57",
"d c #BD6A62",
"f c #FFAE70",
"g c black",
"h c black",
"j c black",
/* pixels */
",,>::::2112::::::::::21<,,,,>>,,",
",,>333:2222:::::::::3211,,,,>>,,",
",,,,,>33333::::::::3>,,,,,,>>>>>",
",,,,,,>>33>3::::333>,,,,,,>>>>>>",
">,,,,,,,,,,>3::3>,,,,,,>>>>>>>>>",
">>,,,,,,,,,,>33>,,,,,,>>>>>>>>>>",
">>>>>,,,,,,,,,,,,,,,,>>>>>>>33>>",
">>>>>>,,,,,,,,,,,,,,>>>>>>>>::>>",
">>>>>>>>>>>>>>>,1<<12>>>>>3:::::",
">>>>>>>>>>>>222,1<<1,222>>::::::",
":3>>>>>>>>>211111,,111112:::::::",
"::>>>>>>>>2,1<<1,,,,1<<1233:::::",
":::::3>>>2111,,,,,,,,,,1122:::::",
"::::::>>2,11,,,,,,,,,,,,<12:::::",
":::::::2111,,,,,,,>33>,,<12:::::",
":::::32211,,,,,,,>3::3>,11223:::",
":::::2211,,,,,,,>3::::32,1122:::",
":3223211,,,,,,,,>3:::::3,1122:::",
":221,,,,,,,,,,,,,>3::::211223:::",
">211,,,,,,,,,,,,,,>3:::2222:::3>",
",,,,,,,,,,,>>,,,,,,>3::3223::3>,",
",,,,,,,,,,>>>>,,,,,,>>3>>>>33>,,",
"<<<1,,,,,>>>>>>,,,,,,,,,,,,,,,,,",
"<<<11,,,>>>>>>>>,,,,,,,,,,,,,,,,",
",,,11<<12>>>>>>>>>>,,,,,,,,,1<<<",
",,,,1<<1,2>>>>>>>>>>,,,,,,,11<<<",
",,,,,,,1112>33>>>>>>>>>>>,111,,,",
",,,,,,,,<12>::>>>>>>>>>>2,11,,,,",
",,>33>,,<12::::::3>>>>>2111,,,,,",
",>3::3>,11233:::::>>>>2,11,,,,,,",
">3::::32,1122::::::::2111,,,,,,,",
":::::::>,,<12::::::::21<,,,,,,,,"
};
